<?xml version="1.0" encoding="UTF-8"?>
<svg id="Capa_2" xmlns="http://www.w3.org/2000/svg" version="1.1" viewBox="0 0 92.6 42.9">
  <!-- Generator: Adobe Illustrator 30.1.0, SVG Export Plug-In . SVG Version: 2.1.1 Build 136)  -->
  <defs>
    <style>
      .st0 {
        fill: #0853a4;
      }
    </style>
  </defs>
  <g id="Capa_1-2">
    <path class="st0" d="M0,0h5.7C7.2,0,8.3.2,9.2.6c.9.4,1.5.9,1.9,1.6s.6,1.5.6,2.4-.2,1.8-.6,2.5c-.4.7-1,1.3-1.8,1.7l3.2,6.3h-3.5l-2.7-5.6c-.1,0-.2,0-.3,0-.1,0-.2,0-.3,0h-2.3v5.6H0V0ZM8.4,4.8c0-.7-.2-1.2-.6-1.6s-1.2-.5-2.2-.5h-2.3v4.4h2.5c1.1,0,1.8-.2,2.2-.6.4-.4.6-1,.6-1.7Z"/>
    <path class="st0" d="M23.7,11.9h-5.7l-1.1,3.4h-3.4L18.9,0h4l5.4,15.2h-3.5l-1.1-3.4ZM20.8,2.9l-2,6.2h4.1s-2-6.2-2-6.2Z"/>
    <path class="st0" d="M30.1,0h3.9l3.9,11.2L41.9,0h3.9v15.2h-3.1V5.1l-3.6,10.2h-2.5l-3.5-10.1v10.1h-3V0h0Z"/>
    <path class="st0" d="M57.8,11.9h-5.7l-1.2,3.4h-3.4L53,0h4l5.4,15.2h-3.5s-1.1-3.4-1.1-3.4ZM54.9,2.9l-2,6.2h4.1s-2-6.2-2-6.2Z"/>
    <path class="st0" d="M64.2,0h5.8C72.4,0,74.2.6,75.5,1.9c1.3,1.3,1.9,3.1,1.9,5.6s-.7,4.4-2,5.8c-1.4,1.3-3.3,2-5.7,2h-5.5S64.2,0,64.2,0ZM74,7.6c0-1.5-.3-2.7-.9-3.5s-1.6-1.2-3-1.2h-2.6v9.6h2.3c1.4,0,2.5-.4,3.2-1.3s1-2,1-3.6h0Z"/>
    <path class="st0" d="M87.9,11.9h-5.7l-1.2,3.4h-3.4L83.2,0h4l5.4,15.2h-3.5s-1.1-3.4-1.1-3.4ZM85.1,2.9l-2,6.2h4.1s-2.1-6.2-2.1-6.2Z"/>
    <path class="st0" d="M0,27.3h10.6v2.7H3.3v3.4h6.8v2.7H3.3v3.7h7.3v2.7H0v-15.2h0Z"/>
    <path class="st0" d="M21.6,38.3c0-.5-.1-.8-.4-1.2s-.8-.6-1.7-.7l-2-.4c-1.6-.3-2.8-.8-3.6-1.5-.8-.7-1.2-1.7-1.2-3s.2-1.8.8-2.5c.5-.7,1.2-1.2,2.1-1.5.9-.4,2-.5,3.2-.5s2.4.2,3.2.5c.8.4,1.5.9,1.9,1.5s.7,1.4.8,2.2l-3.2.4c-.2-.7-.5-1.2-.9-1.6-.4-.3-1.1-.5-2-.5s-1.7.2-2.1.5-.6.8-.6,1.3.2.9.5,1.2.9.5,1.6.6l2.1.4c1.7.3,2.9.8,3.7,1.6s1.1,1.7,1.1,3-.5,2.6-1.6,3.5-2.6,1.3-4.6,1.3-3.5-.4-4.6-1.2c-1.1-.8-1.8-2.1-1.9-3.8h3.3c.1.8.5,1.4,1,1.8s1.3.6,2.3.6,1.7-.2,2.1-.5.6-.8.6-1.4h0Z"/>
    <path class="st0" d="M30.7,30.2h-4.6v-2.9h12.7v2.9h-4.7v12.3h-3.4v-12.3h0Z"/>
    <path class="st0" d="M40.5,36.3v-9h3.4v9.1c0,1.2.2,2.1.7,2.7s1.2.9,2.2.9,1.8-.3,2.2-.9.6-1.5.6-2.7v-9.1h3.4v9c0,2.2-.5,3.9-1.6,5s-2.6,1.6-4.6,1.6-3.5-.5-4.6-1.6-1.6-2.8-1.6-5h0Z"/>
    <path class="st0" d="M55.8,27.3h5.8c2.4,0,4.3.6,5.5,1.9s1.9,3.1,1.9,5.6-.7,4.5-2,5.8-3.3,2-5.7,2h-5.5v-15.2h0ZM65.6,34.9c0-1.5-.3-2.7-.9-3.5-.6-.8-1.6-1.2-3-1.2h-2.6v9.5h2.3c1.4,0,2.5-.4,3.2-1.3.7-.8,1-2,1-3.6Z"/>
    <path class="st0" d="M71.6,27.3h3.3v15.2h-3.3s0-15.2,0-15.2Z"/>
    <path class="st0" d="M77.4,35c0-1.7.3-3.2.9-4.4.6-1.2,1.5-2.1,2.6-2.7s2.4-.9,3.9-.9,2.8.3,3.9.9c1.1.6,1.9,1.5,2.5,2.7s.9,2.6.9,4.3-.3,3.2-.9,4.4-1.4,2.1-2.5,2.8c-1.1.6-2.4,1-3.9,1s-2.8-.3-3.9-.9-1.9-1.5-2.5-2.7-.9-2.6-.9-4.3h0ZM80.9,34.9c0,1.6.3,2.8,1,3.7s1.6,1.3,2.9,1.3,2.2-.5,2.9-1.3c.7-.9,1-2.2,1-3.7s-.3-2.8-1-3.7-1.6-1.4-2.9-1.4-2.2.5-2.9,1.4-1,2.1-1,3.7Z"/>
    <rect class="st0" y="19.7" width="92.6" height="3.1"/>
  </g>
</svg>